<svg width="256" height="256" viewBox="0 0 256 256" fill="none" xmlns="http://www.w3.org/2000/svg">
<rect width="256" height="256" rx="40" fill="#2563EB"/>
<path d="M170.667 100C178.767 100 185.333 93.4335 185.333 85.3333C185.333 77.2332 178.767 70.6667 170.667 70.6667C162.566 70.6667 156 77.2332 156 85.3333C156 93.4335 162.566 100 170.667 100Z" fill="white"/>
<path d="M165.547 107.467C157.173 105.653 150.347 98.8267 148.533 90.4533C147.84 87.2 147.787 84.0533 148.373 81.0667C149.067 77.76 146.613 74.6667 143.2 74.6667H101.333C86.6133 74.6667 74.6667 86.6133 74.6667 101.333V138.4C74.6667 153.12 86.6133 165.067 101.333 165.067H109.333C110.827 165.067 112.747 166.027 113.6 167.2L121.6 177.813C125.12 182.507 130.88 182.507 134.4 177.813L142.4 167.2C143.413 165.867 144.96 165.067 146.667 165.067H154.72C169.44 165.067 181.333 153.173 181.333 138.453V112.8C181.333 109.44 178.24 106.987 174.933 107.627C171.947 108.16 168.8 108.16 165.547 107.467ZM106.667 128C103.68 128 101.333 125.6 101.333 122.667C101.333 119.733 103.68 117.333 106.667 117.333C109.6 117.333 112 119.733 112 122.667C112 125.6 109.653 128 106.667 128ZM128 128C125.013 128 122.667 125.6 122.667 122.667C122.667 119.733 125.013 117.333 128 117.333C130.933 117.333 133.333 119.733 133.333 122.667C133.333 125.6 130.987 128 128 128ZM149.333 128C146.347 128 144 125.6 144 122.667C144 119.733 146.347 117.333 149.333 117.333C152.267 117.333 154.667 119.733 154.667 122.667C154.667 125.6 152.32 128 149.333 128Z" fill="white"/>
</svg>
